{
  "source": "C:\\Users\\Peter\\Desktop\\stuff\\MIUN\\quantitative_research\\video_compression\\videos\\HEVC_CLASS_B\\ParkScene_1920x1080_24.y4m",
  "output": "C:\\Users\\Peter\\Desktop\\stuff\\MIUN\\quantitative_research\\video_compression\\compressed_videos\\HEVC_CLASS_B\\av1\\1.5\\ParkScene_1920x1080_24_av1.mkv",
  "codec": "av1",
  "ok": "Input #0, yuv4mpegpipe, from 'C:\\Users\\Peter\\Desktop\\stuff\\MIUN\\quantitative_research\\video_compression\\videos\\HEVC_CLASS_B\\ParkScene_1920x1080_24.y4m':\n  Duration: 00:00:10.00, start: 0.000000, bitrate: 597198 kb/s\n  Stream #0:0: Video: rawvideo (I420 / 0x30323449), yuv420p(progressive), 1920x1080, 24 fps, 24 tbr, 24 tbn\n[out#0/matroska @ 000001bc8c6b8ec0] Codec AVOption b:a (set bitrate (in bits/s)) has not been used for any stream. The most likely reason is either wrong type (e.g. a video option with no video streams) or that it is a private option of some decoder which was not actually used for any stream.\nStream mapping:\n  Stream #0:0 -> #0:0 (rawvideo (native) -> av1 (libsvtav1))\nPress [q] to stop, [?] for help\nSvt[info]: -------------------------------------------\nSvt[info]: SVT [version]:\tSVT-AV1 Encoder Lib v3.1.0-19-g6ecfe8ec\nSvt[info]: SVT [build]  :\tGCC 15.2.0\t 64 bit\nSvt[info]: LIB Build date: Aug 17 2025 11:37:13\nSvt[info]: -------------------------------------------\n[libsvtav1 @ 000001bc8c6bc080] Specified chroma sample location center is unsupported on the AV1 bit stream level. Usage of a container that allows passing this information - such as Matroska - is recommended.\nSvt[info]: Level of Parallelism: 5\nSvt[info]: Number of PPCS 93\nSvt[info]: [asm level on system : up to avx2]\nSvt[info]: [asm level selected : up to avx2]\nSvt[info]: -------------------------------------------\nSvt[info]: SVT [config]: main profile\ttier (auto)\tlevel (auto)\nSvt[info]: SVT [config]: width / height / fps numerator / fps denominator \t\t: 1920 / 1080 / 24 / 1\nSvt[info]: SVT [config]: bit-depth / color format \t\t\t\t\t: 8 / YUV420\nSvt[info]: SVT [config]: preset / tune / pred struct \t\t\t\t\t: 4 / PSNR / random access\nSvt[info]: SVT [config]: gop size / mini-gop size / key-frame type \t\t\t: 161 / 16 / key frame\nSvt[info]: SVT [config]: BRC mode / target bitrate (kbps)\t\t\t\t: VBR / 1500 \nSvt[info]: SVT [config]: AQ mode / Variance Boost \t\t\t\t\t: 2 / 0\nSvt[info]: SVT [config]: sharpness / luminance-based QP bias \t\t\t\t: 0 / 0\nSvt[info]: SVT [config]: QP scale compress strength \t\t\t\t\t: 0\nSvt[info]: -------------------------------------------\nOutput #0, matroska, to 'C:\\Users\\Peter\\Desktop\\stuff\\MIUN\\quantitative_research\\video_compression\\compressed_videos\\HEVC_CLASS_B\\av1\\1.5\\ParkScene_1920x1080_24_av1.mkv':\n  Metadata:\n    encoder         : Lavf62.3.100\n  Stream #0:0: Video: av1 (AV01 / 0x31305641), yuv420p(tv, progressive), 1920x1080, q=2-31, 1500 kb/s, 24 fps, 1k tbn\n    Metadata:\n      encoder         : Lavc62.11.100 libsvtav1\n    Side data:\n      cpb: bitrate max/min/avg: 0/0/1500000 buffer size: 1500000 vbv_delay: N/A\nframe=    0 fps=0.0 q=0.0 size=       0KiB time=N/A bitrate=N/A speed=N/A elapsed=0:00:02.34    \nframe=    0 fps=0.0 q=0.0 size=       0KiB time=N/A bitrate=N/A speed=N/A elapsed=0:00:03.10    \nframe=    0 fps=0.0 q=0.0 size=       0KiB time=N/A bitrate=N/A speed=N/A elapsed=0:00:03.98    \nframe=    0 fps=0.0 q=0.0 size=       0KiB time=N/A bitrate=N/A speed=N/A elapsed=0:00:04.49    \nframe=    0 fps=0.0 q=0.0 size=       0KiB time=N/A bitrate=N/A speed=N/A elapsed=0:00:05.13    \nframe=    0 fps=0.0 q=0.0 size=       0KiB time=N/A bitrate=N/A speed=N/A elapsed=0:00:05.72    \nframe=    0 fps=0.0 q=0.0 size=       0KiB time=N/A bitrate=N/A speed=N/A elapsed=0:00:06.30    \nframe=    0 fps=0.0 q=0.0 size=       0KiB time=N/A bitrate=N/A speed=N/A elapsed=0:00:06.83    \nframe=    0 fps=0.0 q=0.0 size=       0KiB time=N/A bitrate=N/A speed=N/A elapsed=0:00:07.39    \nframe=    0 fps=0.0 q=0.0 size=       0KiB time=N/A bitrate=N/A speed=N/A elapsed=0:00:08.00    \nframe=    0 fps=0.0 q=0.0 size=       0KiB time=N/A bitrate=N/A speed=N/A elapsed=0:00:08.51    \nframe=    0 fps=0.0 q=0.0 size=       0KiB time=N/A bitrate=N/A speed=N/A elapsed=0:00:09.02    \nframe=    0 fps=0.0 q=0.0 size=       0KiB time=N/A bitrate=N/A speed=N/A elapsed=0:00:09.54    \nframe=    0 fps=0.0 q=0.0 size=       0KiB time=N/A bitrate=N/A speed=N/A elapsed=0:00:10.06    \nframe=    0 fps=0.0 q=0.0 size=       0KiB time=N/A bitrate=N/A speed=N/A elapsed=0:00:10.57    \nframe=    0 fps=0.0 q=0.0 size=       0KiB time=N/A bitrate=N/A speed=N/A elapsed=0:00:11.10    \nframe=    0 fps=0.0 q=0.0 size=       0KiB time=N/A bitrate=N/A speed=N/A elapsed=0:00:11.62    \nframe=    0 fps=0.0 q=0.0 size=       0KiB time=N/A bitrate=N/A speed=N/A elapsed=0:00:12.17    \nframe=    0 fps=0.0 q=0.0 size=       0KiB time=N/A bitrate=N/A speed=N/A elapsed=0:00:12.68    \nframe=    0 fps=0.0 q=0.0 size=       0KiB time=N/A bitrate=N/A speed=N/A elapsed=0:00:13.22    \nframe=    0 fps=0.0 q=0.0 size=       0KiB time=N/A bitrate=N/A speed=N/A elapsed=0:00:13.75    \nframe=    0 fps=0.0 q=0.0 size=       0KiB time=N/A bitrate=N/A speed=N/A elapsed=0:00:14.27    \nframe=    0 fps=0.0 q=0.0 size=       0KiB time=N/A bitrate=N/A speed=N/A elapsed=0:00:14.81    \nframe=    1 fps=0.1 q=18.0 size=       1KiB time=00:00:00.00 bitrate=N/A speed=   0x elapsed=0:00:15.35    \nframe=    1 fps=0.1 q=18.0 size=       1KiB time=00:00:00.00 bitrate=N/A speed=   0x elapsed=0:00:15.89    \nframe=    1 fps=0.1 q=18.0 size=       1KiB time=00:00:00.00 bitrate=N/A speed=   0x elapsed=0:00:16.50    \nframe=    1 fps=0.1 q=18.0 size=       1KiB time=00:00:00.00 bitrate=N/A speed=   0x elapsed=0:00:17.02    \nframe=    1 fps=0.1 q=18.0 size=       1KiB time=00:00:00.00 bitrate=N/A speed=   0x elapsed=0:00:17.69    \nframe=    1 fps=0.1 q=18.0 size=       1KiB time=00:00:00.00 bitrate=N/A speed=   0x elapsed=0:00:18.25    \nframe=    1 fps=0.1 q=18.0 size=       1KiB time=00:00:00.00 bitrate=N/A speed=   0x elapsed=0:00:18.80    \nframe=    1 fps=0.1 q=18.0 size=       1KiB time=00:00:00.00 bitrate=N/A speed=   0x elapsed=0:00:19.33    \nframe=    1 fps=0.1 q=18.0 size=       1KiB time=00:00:00.00 bitrate=N/A speed=   0x elapsed=0:00:19.87    \nframe=    1 fps=0.0 q=18.0 size=       1KiB time=00:00:00.00 bitrate=N/A speed=   0x elapsed=0:00:20.40    \nframe=    1 fps=0.0 q=18.0 size=       1KiB time=00:00:00.00 bitrate=N/A speed=   0x elapsed=0:00:20.92    \nframe=    1 fps=0.0 q=18.0 size=       1KiB time=00:00:00.00 bitrate=N/A speed=   0x elapsed=0:00:21.43    \nframe=    2 fps=0.1 q=47.0 size=       1KiB time=00:00:00.04 bitrate= 107.9kbits/s speed=0.0019x elapsed=0:00:21.98    \nframe=    3 fps=0.1 q=44.0 size=       1KiB time=00:00:00.08 bitrate=  54.0kbits/s speed=0.0037x elapsed=0:00:22.50    \nframe=    4 fps=0.2 q=47.0 size=       1KiB time=00:00:00.12 bitrate=  36.0kbits/s speed=0.00543x elapsed=0:00:23.03    \nframe=    6 fps=0.3 q=43.0 size=       1KiB time=00:00:00.20 bitrate=  21.6kbits/s speed=0.00884x elapsed=0:00:23.57    \nframe=    6 fps=0.2 q=43.0 size=       1KiB time=00:00:00.20 bitrate=  21.6kbits/s speed=0.00864x elapsed=0:00:24.10    \nframe=    6 fps=0.2 q=43.0 size=       1KiB time=00:00:00.20 bitrate=  21.6kbits/s speed=0.00844x elapsed=0:00:24.67    \nframe=    7 fps=0.3 q=43.0 size=       1KiB time=00:00:00.25 bitrate=  18.0kbits/s speed=0.00992x elapsed=0:00:25.20    \nframe=    9 fps=0.3 q=38.0 size=       1KiB time=00:00:00.33 bitrate=  13.5kbits/s speed=0.0129x elapsed=0:00:25.74    \nframe=   10 fps=0.4 q=43.0 size=       1KiB time=00:00:00.37 bitrate=  12.0kbits/s speed=0.0143x elapsed=0:00:26.28    \nframe=   11 fps=0.4 q=43.0 size=       1KiB time=00:00:00.41 bitrate=  10.8kbits/s speed=0.0155x elapsed=0:00:26.81    \nframe=   12 fps=0.4 q=43.0 size=       1KiB time=00:00:00.45 bitrate=   9.8kbits/s speed=0.0168x elapsed=0:00:27.33    \nframe=   13 fps=0.5 q=41.0 size=       1KiB time=00:00:00.50 bitrate=   9.0kbits/s speed=0.0179x elapsed=0:00:27.88    \nframe=   16 fps=0.6 q=42.0 size=       1KiB time=00:00:00.62 bitrate=   7.2kbits/s speed=0.022x elapsed=0:00:28.42    \nframe=   18 fps=0.6 q=43.0 size=       1KiB time=00:00:00.70 bitrate=   6.3kbits/s speed=0.0245x elapsed=0:00:28.93    \nframe=   20 fps=0.7 q=43.0 size=       1KiB time=00:00:00.79 bitrate=   5.7kbits/s speed=0.0269x elapsed=0:00:29.44    \nframe=   22 fps=0.7 q=43.0 size=       1KiB time=00:00:00.87 bitrate=   5.1kbits/s speed=0.0292x elapsed=0:00:29.99    \nframe=   22 fps=0.7 q=43.0 size=       1KiB time=00:00:00.87 bitrate=   5.1kbits/s speed=0.0287x elapsed=0:00:30.51    \nframe=   23 fps=0.7 q=43.0 size=       1KiB time=00:00:00.91 bitrate=   4.9kbits/s speed=0.0295x elapsed=0:00:31.06    \nframe=   25 fps=0.8 q=39.0 size=       1KiB time=00:00:01.00 bitrate=   4.5kbits/s speed=0.0317x elapsed=0:00:31.57    \nframe=   26 fps=0.8 q=43.0 size=       1KiB time=00:00:01.04 bitrate=   4.3kbits/s speed=0.0325x elapsed=0:00:32.09    \nframe=   28 fps=0.9 q=43.0 size=       1KiB time=00:00:01.12 bitrate=   4.0kbits/s speed=0.0345x elapsed=0:00:32.64    \nframe=   29 fps=0.9 q=42.0 size=       1KiB time=00:00:01.16 bitrate=   3.9kbits/s speed=0.0352x elapsed=0:00:33.16    \nframe=   30 fps=0.9 q=43.0 size=       1KiB time=00:00:01.20 bitrate=   3.7kbits/s speed=0.0358x elapsed=0:00:33.71    \nframe=   30 fps=0.9 q=43.0 size=       1KiB time=00:00:01.20 bitrate=   3.7kbits/s speed=0.0353x elapsed=0:00:34.27    \nframe=   30 fps=0.9 q=43.0 size=       1KiB time=00:00:01.20 bitrate=   3.7kbits/s speed=0.0347x elapsed=0:00:34.84    \nframe=   31 fps=0.9 q=43.0 size=       1KiB time=00:00:01.25 bitrate=   3.6kbits/s speed=0.0353x elapsed=0:00:35.38    \nframe=   31 fps=0.9 q=43.0 size=       1KiB time=00:00:01.25 bitrate=   3.6kbits/s speed=0.0348x elapsed=0:00:35.93    \nframe=   32 fps=0.9 q=43.0 size=       1KiB time=00:00:01.29 bitrate=   3.5kbits/s speed=0.0354x elapsed=0:00:36.45    \nframe=   33 fps=0.9 q=26.0 size=       1KiB time=00:00:01.33 bitrate=   3.4kbits/s speed=0.0361x elapsed=0:00:36.97    \nframe=   34 fps=0.9 q=44.0 size=       1KiB time=00:00:01.37 bitrate=   3.3kbits/s speed=0.0367x elapsed=0:00:37.50    \nframe=   35 fps=0.9 q=43.0 size=       1KiB time=00:00:01.41 bitrate=   3.2kbits/s speed=0.0372x elapsed=0:00:38.11    \nframe=   37 fps=1.0 q=41.0 size=       1KiB time=00:00:01.50 bitrate=   3.0kbits/s speed=0.0388x elapsed=0:00:38.64    \nframe=   38 fps=1.0 q=44.0 size=       1KiB time=00:00:01.54 bitrate=   2.9kbits/s speed=0.0394x elapsed=0:00:39.16    \nframe=   38 fps=1.0 q=44.0 size=       1KiB time=00:00:01.54 bitrate=   2.9kbits/s speed=0.0389x elapsed=0:00:39.67    \nframe=   38 fps=0.9 q=44.0 size=       1KiB time=00:00:01.54 bitrate=   2.9kbits/s speed=0.0383x elapsed=0:00:40.20    \nframe=   39 fps=1.0 q=43.0 size=       1KiB time=00:00:01.58 bitrate=   2.8kbits/s speed=0.0389x elapsed=0:00:40.73    \nframe=   39 fps=0.9 q=43.0 size=       1KiB time=00:00:01.58 bitrate=   2.8kbits/s speed=0.0384x elapsed=0:00:41.26    \nframe=   40 fps=1.0 q=44.0 size=       1KiB time=00:00:01.62 bitrate=   2.8kbits/s speed=0.0389x elapsed=0:00:41.80    \nframe=   41 fps=1.0 q=38.0 size=       1KiB time=00:00:01.66 bitrate=   2.7kbits/s speed=0.0393x elapsed=0:00:42.38    \nframe=   41 fps=1.0 q=38.0 size=       1KiB time=00:00:01.66 bitrate=   2.7kbits/s speed=0.0388x elapsed=0:00:42.91    \nframe=   42 fps=1.0 q=45.0 size=       1KiB time=00:00:01.70 bitrate=   2.6kbits/s speed=0.0393x elapsed=0:00:43.42    \nframe=   43 fps=1.0 q=44.0 size=       1KiB time=00:00:01.75 bitrate=   2.6kbits/s speed=0.0398x elapsed=0:00:43.94    \nframe=   44 fps=1.0 q=46.0 size=       1KiB time=00:00:01.79 bitrate=   2.5kbits/s speed=0.0402x elapsed=0:00:44.53    \nframe=   45 fps=1.0 q=42.0 size=       1KiB time=00:00:01.83 bitrate=   2.5kbits/s speed=0.0407x elapsed=0:00:45.09    \nframe=   46 fps=1.0 q=44.0 size=       1KiB time=00:00:01.87 bitrate=   2.4kbits/s speed=0.041x elapsed=0:00:45.67    \nframe=   48 fps=1.0 q=44.0 size=       1KiB time=00:00:01.95 bitrate=   2.3kbits/s speed=0.0424x elapsed=0:00:46.19    \nframe=   48 fps=1.0 q=44.0 size=       1KiB time=00:00:01.95 bitrate=   2.3kbits/s speed=0.0419x elapsed=0:00:46.78    \nframe=   50 fps=1.1 q=46.0 size=       1KiB time=00:00:02.04 bitrate=   2.2kbits/s speed=0.0432x elapsed=0:00:47.29    \nframe=   51 fps=1.1 q=45.0 size=       1KiB time=00:00:02.08 bitrate=   2.2kbits/s speed=0.0436x elapsed=0:00:47.83    \nframe=   52 fps=1.1 q=46.0 size=       1KiB time=00:00:02.12 bitrate=   2.1kbits/s speed=0.0439x elapsed=0:00:48.37    \nframe=   53 fps=1.1 q=42.0 size=       1KiB time=00:00:02.16 bitrate=   2.1kbits/s speed=0.0443x elapsed=0:00:48.90    \nframe=   54 fps=1.1 q=46.0 size=       1KiB time=00:00:02.20 bitrate=   2.0kbits/s speed=0.0446x elapsed=0:00:49.46    \nframe=   54 fps=1.1 q=46.0 size=       1KiB time=00:00:02.20 bitrate=   2.0kbits/s speed=0.0442x elapsed=0:00:50.01    \nframe=   54 fps=1.1 q=46.0 size=       1KiB time=00:00:02.20 bitrate=   2.0kbits/s speed=0.0436x elapsed=0:00:50.60    \nframe=   55 fps=1.1 q=45.0 size=       1KiB time=00:00:02.25 bitrate=   2.0kbits/s speed=0.044x elapsed=0:00:51.16    \nframe=   56 fps=1.1 q=46.0 size=       1KiB time=00:00:02.29 bitrate=   2.0kbits/s speed=0.0443x elapsed=0:00:51.73    \nframe=   57 fps=1.1 q=37.0 size=       1KiB time=00:00:02.33 bitrate=   1.9kbits/s speed=0.0446x elapsed=0:00:52.29    \nframe=   58 fps=1.1 q=46.0 size=       1KiB time=00:00:02.37 bitrate=   1.9kbits/s speed=0.0449x elapsed=0:00:52.88    \nframe=   59 fps=1.1 q=45.0 size=       1KiB time=00:00:02.41 bitrate=   1.9kbits/s speed=0.0451x elapsed=0:00:53.55    \nframe=   59 fps=1.1 q=45.0 size=       1KiB time=00:00:02.41 bitrate=   1.9kbits/s speed=0.0447x elapsed=0:00:54.07    \nframe=   61 fps=1.1 q=42.0 size=       1KiB time=00:00:02.50 bitrate=   1.8kbits/s speed=0.0458x elapsed=0:00:54.62    \nframe=   62 fps=1.1 q=44.0 size=       1KiB time=00:00:02.54 bitrate=   1.8kbits/s speed=0.0461x elapsed=0:00:55.16    \nframe=   63 fps=1.1 q=41.0 size=       1KiB time=00:00:02.58 bitrate=   1.7kbits/s speed=0.0464x elapsed=0:00:55.70    \nframe=   64 fps=1.1 q=43.0 size=       1KiB time=00:00:02.62 bitrate=   1.7kbits/s speed=0.0467x elapsed=0:00:56.24    \nframe=   64 fps=1.1 q=43.0 size=       1KiB time=00:00:02.62 bitrate=   1.7kbits/s speed=0.0462x elapsed=0:00:56.86    \nframe=   66 fps=1.1 q=46.0 size=       1KiB time=00:00:02.70 bitrate=   1.7kbits/s speed=0.0472x elapsed=0:00:57.42    \nframe=   67 fps=1.2 q=45.0 size=       1KiB time=00:00:02.75 bitrate=   1.6kbits/s speed=0.0474x elapsed=0:00:57.98    \nframe=   67 fps=1.1 q=45.0 size=       1KiB time=00:00:02.75 bitrate=   1.6kbits/s speed=0.047x elapsed=0:00:58.56    \nframe=   69 fps=1.2 q=43.0 size=       1KiB time=00:00:02.79 bitrate=   1.6kbits/s speed=0.0472x elapsed=0:00:59.16    \nframe=   70 fps=1.2 q=46.0 size=       1KiB time=00:00:02.87 bitrate=   1.6kbits/s speed=0.0481x elapsed=0:00:59.74    \nframe=   70 fps=1.2 q=46.0 size=       1KiB time=00:00:02.87 bitrate=   1.6kbits/s speed=0.0477x elapsed=0:01:00.32    \nframe=   70 fps=1.1 q=46.0 size=       1KiB time=00:00:02.87 bitrate=   1.6kbits/s speed=0.0472x elapsed=0:01:00.90    \nframe=   71 fps=1.2 q=45.0 size=       1KiB time=00:00:02.91 bitrate=   1.5kbits/s speed=0.0474x elapsed=0:01:01.51    \nframe=   71 fps=1.1 q=45.0 size=       1KiB time=00:00:02.91 bitrate=   1.5kbits/s speed=0.0469x elapsed=0:01:02.14    \nframe=   72 fps=1.1 q=46.0 size=       1KiB time=00:00:02.95 bitrate=   1.5kbits/s speed=0.0472x elapsed=0:01:02.68    \nframe=   73 fps=1.2 q=39.0 size=       1KiB time=00:00:03.00 bitrate=   1.5kbits/s speed=0.0474x elapsed=0:01:03.27    \nframe=   74 fps=1.2 q=46.0 size=       1KiB time=00:00:03.04 bitrate=   1.5kbits/s speed=0.0476x elapsed=0:01:03.90    \nframe=   75 fps=1.2 q=45.0 size=       1KiB time=00:00:03.08 bitrate=   1.5kbits/s speed=0.0479x elapsed=0:01:04.43    \nframe=   75 fps=1.2 q=45.0 size=       1KiB time=00:00:03.08 bitrate=   1.5kbits/s speed=0.0475x elapsed=0:01:04.97    \nframe=   76 fps=1.2 q=46.0 size=       1KiB time=00:00:03.12 bitrate=   1.4kbits/s speed=0.0477x elapsed=0:01:05.50    \nframe=   77 fps=1.2 q=43.0 size=       1KiB time=00:00:03.16 bitrate=   1.4kbits/s speed=0.0479x elapsed=0:01:06.06    \nframe=   79 fps=1.2 q=41.0 size=       1KiB time=00:00:03.25 bitrate=   1.4kbits/s speed=0.0488x elapsed=0:01:06.64    \nframe=   79 fps=1.2 q=41.0 size=       1KiB time=00:00:03.25 bitrate=   1.4kbits/s speed=0.0484x elapsed=0:01:07.19    \nframe=   79 fps=1.2 q=41.0 size=       1KiB time=00:00:03.25 bitrate=   1.4kbits/s speed=0.048x elapsed=0:01:07.75    \nframe=   80 fps=1.2 q=44.0 size=       1KiB time=00:00:03.29 bitrate=   1.4kbits/s speed=0.0482x elapsed=0:01:08.35    \nframe=   81 fps=1.2 q=30.0 size=       1KiB time=00:00:03.29 bitrate=   1.4kbits/s speed=0.0477x elapsed=0:01:08.93    \nframe=   82 fps=1.2 q=45.0 size=       1KiB time=00:00:03.37 bitrate=   1.3kbits/s speed=0.0485x elapsed=0:01:09.52    \nframe=   82 fps=1.2 q=45.0 size=       1KiB time=00:00:03.37 bitrate=   1.3kbits/s speed=0.0482x elapsed=0:01:10.06    \nframe=   83 fps=1.2 q=44.0 size=       1KiB time=00:00:03.41 bitrate=   1.3kbits/s speed=0.0484x elapsed=0:01:10.62    \nframe=   84 fps=1.2 q=45.0 size=       1KiB time=00:00:03.45 bitrate=   1.3kbits/s speed=0.0486x elapsed=0:01:11.18    \nframe=   85 fps=1.2 q=42.0 size=       1KiB time=00:00:03.50 bitrate=   1.3kbits/s speed=0.0488x elapsed=0:01:11.70    \nframe=   86 fps=1.2 q=45.0 size=       1KiB time=00:00:03.54 bitrate=   1.3kbits/s speed=0.049x elapsed=0:01:12.23    \nframe=   86 fps=1.2 q=45.0 size=       1KiB time=00:00:03.54 bitrate=   1.3kbits/s speed=0.0487x elapsed=0:01:12.78    \nframe=   87 fps=1.2 q=44.0 size=       1KiB time=00:00:03.58 bitrate=   1.3kbits/s speed=0.0489x elapsed=0:01:13.33    \nframe=   88 fps=1.2 q=45.0 size=       1KiB time=00:00:03.62 bitrate=   1.2kbits/s speed=0.0491x elapsed=0:01:13.88    \nframe=   88 fps=1.2 q=45.0 size=       1KiB time=00:00:03.62 bitrate=   1.2kbits/s speed=0.0487x elapsed=0:01:14.50    \nframe=   89 fps=1.2 q=38.0 size=       1KiB time=00:00:03.66 bitrate=   1.2kbits/s speed=0.0488x elapsed=0:01:15.08    \nframe=   90 fps=1.2 q=45.0 size=       1KiB time=00:00:03.70 bitrate=   1.2kbits/s speed=0.049x elapsed=0:01:15.62    \nframe=   91 fps=1.2 q=44.0 size=       1KiB time=00:00:03.75 bitrate=   1.2kbits/s speed=0.0493x elapsed=0:01:16.14    \nframe=   91 fps=1.2 q=44.0 size=       1KiB time=00:00:03.75 bitrate=   1.2kbits/s speed=0.0489x elapsed=0:01:16.66    \nframe=   93 fps=1.2 q=42.0 size=       1KiB time=00:00:03.83 bitrate=   1.2kbits/s speed=0.0497x elapsed=0:01:17.17    \nframe=   94 fps=1.2 q=45.0 size=       1KiB time=00:00:03.87 bitrate=   1.2kbits/s speed=0.0499x elapsed=0:01:17.69    \nframe=   96 fps=1.2 q=45.0 size=       1KiB time=00:00:03.95 bitrate=   1.1kbits/s speed=0.0506x elapsed=0:01:18.25    \nframe=   98 fps=1.2 q=46.0 size=       1KiB time=00:00:04.00 bitrate=   1.1kbits/s speed=0.0508x elapsed=0:01:18.77    \nframe=   98 fps=1.2 q=46.0 size=       1KiB time=00:00:04.04 bitrate=   1.1kbits/s speed=0.0509x elapsed=0:01:19.37    \nframe=   99 fps=1.2 q=45.0 size=       1KiB time=00:00:04.08 bitrate=   1.1kbits/s speed=0.0511x elapsed=0:01:19.92    \nframe=  101 fps=1.3 q=43.0 size=       1KiB time=00:00:04.16 bitrate=   1.1kbits/s speed=0.0517x elapsed=0:01:20.52    \nframe=  101 fps=1.2 q=43.0 size=       1KiB time=00:00:04.16 bitrate=   1.1kbits/s speed=0.0514x elapsed=0:01:21.09    \nframe=  103 fps=1.3 q=45.0 size=       1KiB time=00:00:04.25 bitrate=   1.1kbits/s speed=0.052x elapsed=0:01:21.69    \nframe=  103 fps=1.3 q=45.0 size=       1KiB time=00:00:04.25 bitrate=   1.1kbits/s speed=0.0517x elapsed=0:01:22.27    \nframe=  105 fps=1.3 q=39.0 size=       1KiB time=00:00:04.29 bitrate=   1.0kbits/s speed=0.0518x elapsed=0:01:22.79    \nframe=  107 fps=1.3 q=45.0 size=       1KiB time=00:00:04.37 bitrate=   1.0kbits/s speed=0.0525x elapsed=0:01:23.40    \nframe=  108 fps=1.3 q=46.0 size=       1KiB time=00:00:04.45 bitrate=   1.0kbits/s speed=0.0531x elapsed=0:01:23.96    \nframe=  109 fps=1.3 q=43.0 size=       1KiB time=00:00:04.45 bitrate=   1.0kbits/s speed=0.0527x elapsed=0:01:24.56    \nframe=  111 fps=1.3 q=45.0 size=       1KiB time=00:00:04.54 bitrate=   1.0kbits/s speed=0.0533x elapsed=0:01:25.16    \nframe=  112 fps=1.3 q=46.0 size=       1KiB time=00:00:04.58 bitrate=   1.0kbits/s speed=0.0534x elapsed=0:01:25.87    \nframe=  113 fps=1.3 q=30.0 size=       1KiB time=00:00:04.66 bitrate=   1.0kbits/s speed=0.054x elapsed=0:01:26.47    \nframe=  114 fps=1.3 q=46.0 size=       1KiB time=00:00:04.70 bitrate=   1.0kbits/s speed=0.0541x elapsed=0:01:27.04    \nframe=  116 fps=1.3 q=46.0 size=       1KiB time=00:00:04.79 bitrate=   0.9kbits/s speed=0.0547x elapsed=0:01:27.62    \nframe=  117 fps=1.3 q=43.0 size=       1KiB time=00:00:04.83 bitrate=   0.9kbits/s speed=0.0548x elapsed=0:01:28.19    \nframe=  117 fps=1.3 q=43.0 size=       1KiB time=00:00:04.83 bitrate=   0.9kbits/s speed=0.0545x elapsed=0:01:28.74    \nframe=  118 fps=1.3 q=46.0 size=       1KiB time=00:00:04.87 bitrate=   0.9kbits/s speed=0.0546x elapsed=0:01:29.31    \nframe=  119 fps=1.3 q=45.0 size=       1KiB time=00:00:04.91 bitrate=   0.9kbits/s speed=0.0547x elapsed=0:01:29.88    \nframe=  122 fps=1.3 q=46.0 size=       1KiB time=00:00:05.04 bitrate=   0.9kbits/s speed=0.0557x elapsed=0:01:30.49    \nframe=  122 fps=1.3 q=46.0 size=       1KiB time=00:00:05.04 bitrate=   0.9kbits/s speed=0.0554x elapsed=0:01:31.08    \nframe=  123 fps=1.3 q=45.0 size=     768KiB time=00:00:05.04 bitrate=1247.9kbits/s speed=0.055x elapsed=0:01:31.70    \nframe=  125 fps=1.4 q=43.0 size=     768KiB time=00:00:05.16 bitrate=1217.7kbits/s speed=0.0559x elapsed=0:01:32.34    \nframe=  126 fps=1.4 q=43.0 size=     768KiB time=00:00:05.20 bitrate=1208.0kbits/s speed=0.056x elapsed=0:01:32.94    \nframe=  127 fps=1.4 q=39.0 size=     768KiB time=00:00:05.25 bitrate=1198.4kbits/s speed=0.0562x elapsed=0:01:33.48    \nframe=  127 fps=1.4 q=39.0 size=     768KiB time=00:00:05.25 bitrate=1198.4kbits/s speed=0.0558x elapsed=0:01:34.05    \nframe=  129 fps=1.4 q=31.0 size=     768KiB time=00:00:05.33 bitrate=1179.6kbits/s speed=0.0564x elapsed=0:01:34.60    \nframe=  130 fps=1.4 q=46.0 size=     768KiB time=00:00:05.37 bitrate=1170.5kbits/s speed=0.0565x elapsed=0:01:35.14    \nframe=  130 fps=1.4 q=46.0 size=     768KiB time=00:00:05.37 bitrate=1170.5kbits/s speed=0.0562x elapsed=0:01:35.70    \nframe=  132 fps=1.4 q=46.0 size=     768KiB time=00:00:05.45 bitrate=1152.6kbits/s speed=0.0567x elapsed=0:01:36.24    \nframe=  133 fps=1.4 q=43.0 size=     768KiB time=00:00:05.50 bitrate=1143.9kbits/s speed=0.0568x elapsed=0:01:36.84    \nframe=  135 fps=1.4 q=45.0 size=     768KiB time=00:00:05.54 bitrate=1135.3kbits/s speed=0.0569x elapsed=0:01:37.42    \nframe=  135 fps=1.4 q=45.0 size=     768KiB time=00:00:05.58 bitrate=1126.8kbits/s speed=0.057x elapsed=0:01:37.96    \nframe=  137 fps=1.4 q=38.0 size=     768KiB time=00:00:05.62 bitrate=1118.5kbits/s speed=0.0571x elapsed=0:01:38.56    \nframe=  138 fps=1.4 q=45.0 size=     768KiB time=00:00:05.70 bitrate=1102.2kbits/s speed=0.0576x elapsed=0:01:39.16    \nframe=  140 fps=1.4 q=45.0 size=     768KiB time=00:00:05.79 bitrate=1086.3kbits/s speed=0.0581x elapsed=0:01:39.72    \nframe=  141 fps=1.4 q=42.0 size=     768KiB time=00:00:05.83 bitrate=1078.5kbits/s speed=0.0582x elapsed=0:01:40.28    \nframe=  145 fps=1.4 q=30.0 size=     768KiB time=00:00:06.00 bitrate=1048.6kbits/s speed=0.0595x elapsed=0:01:40.83    \nframe=  145 fps=1.4 q=30.0 size=     768KiB time=00:00:06.00 bitrate=1048.6kbits/s speed=0.0592x elapsed=0:01:41.36    \nframe=  147 fps=1.4 q=45.0 size=     768KiB time=00:00:06.08 bitrate=1034.2kbits/s speed=0.0597x elapsed=0:01:41.88    \nframe=  149 fps=1.5 q=43.0 size=     768KiB time=00:00:06.16 bitrate=1020.2kbits/s speed=0.0602x elapsed=0:01:42.43    \nframe=  151 fps=1.5 q=45.0 size=     768KiB time=00:00:06.25 bitrate=1006.6kbits/s speed=0.0607x elapsed=0:01:42.96    \nframe=  153 fps=1.5 q=40.0 size=     768KiB time=00:00:06.33 bitrate= 993.4kbits/s speed=0.0612x elapsed=0:01:43.49    \nframe=  153 fps=1.5 q=40.0 size=     768KiB time=00:00:06.33 bitrate= 993.4kbits/s speed=0.0609x elapsed=0:01:44.01    \nframe=  153 fps=1.5 q=40.0 size=     768KiB time=00:00:06.33 bitrate= 993.4kbits/s speed=0.0606x elapsed=0:01:44.53    \nframe=  157 fps=1.5 q=43.0 size=     768KiB time=00:00:06.41 bitrate= 980.5kbits/s speed=0.0608x elapsed=0:01:45.52    \nframe=  157 fps=1.5 q=43.0 size=     768KiB time=00:00:06.50 bitrate= 967.9kbits/s speed=0.0611x elapsed=0:01:46.33    \nframe=  161 fps=1.5 q=33.0 size=     768KiB time=00:00:06.58 bitrate= 955.7kbits/s speed=0.0615x elapsed=0:01:47.03    \nframe=  162 fps=1.5 q=19.0 size=     768KiB time=00:00:06.66 bitrate= 943.7kbits/s speed=0.0619x elapsed=0:01:47.72    \nframe=  162 fps=1.5 q=19.0 size=     768KiB time=00:00:06.70 bitrate= 937.9kbits/s speed=0.0618x elapsed=0:01:48.60    \nframe=  162 fps=1.5 q=19.0 size=     768KiB time=00:00:06.70 bitrate= 937.9kbits/s speed=0.0613x elapsed=0:01:49.50    \nframe=  162 fps=1.5 q=19.0 size=     768KiB time=00:00:06.70 bitrate= 937.9kbits/s speed=0.0607x elapsed=0:01:50.44    \nframe=  162 fps=1.5 q=19.0 size=     768KiB time=00:00:06.70 bitrate= 937.9kbits/s speed=0.0603x elapsed=0:01:51.21    \nframe=  162 fps=1.4 q=19.0 size=     768KiB time=00:00:06.70 bitrate= 937.9kbits/s speed=0.06x elapsed=0:01:51.82    \nframe=  162 fps=1.4 q=19.0 size=     768KiB time=00:00:06.70 bitrate= 937.9kbits/s speed=0.0596x elapsed=0:01:52.52    \nframe=  166 fps=1.5 q=41.0 size=    1024KiB time=00:00:06.79 bitrate=1235.1kbits/s speed=0.0599x elapsed=0:01:53.37    \nframe=  168 fps=1.5 q=44.0 size=    1024KiB time=00:00:06.87 bitrate=1220.2kbits/s speed=0.0602x elapsed=0:01:54.16    \nframe=  170 fps=1.5 q=36.0 size=    1024KiB time=00:00:07.04 bitrate=1191.3kbits/s speed=0.0612x elapsed=0:01:55.03    \nframe=  170 fps=1.5 q=36.0 size=    1024KiB time=00:00:07.04 bitrate=1191.3kbits/s speed=0.0607x elapsed=0:01:55.93    \nframe=  170 fps=1.5 q=36.0 size=    1024KiB time=00:00:07.04 bitrate=1191.3kbits/s speed=0.0603x elapsed=0:01:56.71    \nframe=  174 fps=1.5 q=42.0 size=    1024KiB time=00:00:07.20 bitrate=1163.7kbits/s speed=0.0615x elapsed=0:01:57.23    \nframe=  176 fps=1.5 q=45.0 size=    1024KiB time=00:00:07.29 bitrate=1150.4kbits/s speed=0.0619x elapsed=0:01:57.77    \nframe=  178 fps=1.5 q=25.0 size=    1024KiB time=00:00:07.37 bitrate=1137.4kbits/s speed=0.0623x elapsed=0:01:58.29    \nframe=  178 fps=1.5 q=25.0 size=    1024KiB time=00:00:07.37 bitrate=1137.4kbits/s speed=0.0621x elapsed=0:01:58.81    \nframe=  178 fps=1.5 q=25.0 size=    1024KiB time=00:00:07.37 bitrate=1137.4kbits/s speed=0.0618x elapsed=0:01:59.36    \nframe=  178 fps=1.5 q=25.0 size=    1024KiB time=00:00:07.37 bitrate=1137.4kbits/s speed=0.0615x elapsed=0:01:59.87    \nframe=  180 fps=1.5 q=44.0 size=    1024KiB time=00:00:07.45 bitrate=1124.7kbits/s speed=0.0619x elapsed=0:02:00.39    \nframe=  182 fps=1.5 q=42.0 size=    1024KiB time=00:00:07.54 bitrate=1112.3kbits/s speed=0.0624x elapsed=0:02:00.94    \nframe=  182 fps=1.5 q=42.0 size=    1024KiB time=00:00:07.54 bitrate=1112.3kbits/s speed=0.0621x elapsed=0:02:01.48    \nframe=  184 fps=1.5 q=44.0 size=    1024KiB time=00:00:07.62 bitrate=1100.1kbits/s speed=0.0625x elapsed=0:02:02.00    \nframe=  186 fps=1.5 q=37.0 size=    1024KiB time=00:00:07.70 bitrate=1088.3kbits/s speed=0.0629x elapsed=0:02:02.62    \nframe=  186 fps=1.5 q=37.0 size=    1024KiB time=00:00:07.70 bitrate=1088.3kbits/s speed=0.0626x elapsed=0:02:03.18    \nframe=  186 fps=1.5 q=37.0 size=    1024KiB time=00:00:07.70 bitrate=1088.3kbits/s speed=0.0623x elapsed=0:02:03.71    \nframe=  186 fps=1.5 q=37.0 size=    1024KiB time=00:00:07.70 bitrate=1088.3kbits/s speed=0.062x elapsed=0:02:04.27    \nframe=  188 fps=1.5 q=44.0 size=    1024KiB time=00:00:07.79 bitrate=1076.6kbits/s speed=0.0624x elapsed=0:02:04.86    \nframe=  190 fps=1.5 q=42.0 size=    1024KiB time=00:00:07.87 bitrate=1065.2kbits/s speed=0.0628x elapsed=0:02:05.39    \nframe=  192 fps=1.5 q=44.0 size=    1024KiB time=00:00:07.87 bitrate=1065.2kbits/s speed=0.0625x elapsed=0:02:05.90    \nframe=  192 fps=1.5 q=44.0 size=    1024KiB time=00:00:07.95 bitrate=1054.1kbits/s speed=0.0629x elapsed=0:02:06.43    \nframe=  194 fps=1.5 q=26.0 size=    1024KiB time=00:00:08.04 bitrate=1043.1kbits/s speed=0.0633x elapsed=0:02:06.95    \nframe=  194 fps=1.5 q=26.0 size=    1024KiB time=00:00:08.04 bitrate=1043.1kbits/s speed=0.0631x elapsed=0:02:07.50    \nframe=  194 fps=1.5 q=26.0 size=    1024KiB time=00:00:08.04 bitrate=1043.1kbits/s speed=0.0628x elapsed=0:02:08.03    \nframe=  194 fps=1.5 q=26.0 size=    1024KiB time=00:00:08.04 bitrate=1043.1kbits/s speed=0.0626x elapsed=0:02:08.56    \nframe=  194 fps=1.5 q=26.0 size=    1024KiB time=00:00:08.04 bitrate=1043.1kbits/s speed=0.0623x elapsed=0:02:09.09    \nframe=  196 fps=1.5 q=44.0 size=    1024KiB time=00:00:08.12 bitrate=1032.4kbits/s speed=0.0627x elapsed=0:02:09.62    \nframe=  198 fps=1.5 q=41.0 size=    1024KiB time=00:00:08.20 bitrate=1022.0kbits/s speed=0.0631x elapsed=0:02:10.17    \nframe=  198 fps=1.5 q=41.0 size=    1024KiB time=00:00:08.20 bitrate=1022.0kbits/s speed=0.0628x elapsed=0:02:10.70    \nframe=  202 fps=1.5 q=36.0 size=    1024KiB time=00:00:08.37 bitrate=1001.6kbits/s speed=0.0638x elapsed=0:02:11.23    \nframe=  202 fps=1.5 q=36.0 size=    1024KiB time=00:00:08.37 bitrate=1001.6kbits/s speed=0.0635x elapsed=0:02:11.84    \nframe=  202 fps=1.5 q=36.0 size=    1024KiB time=00:00:08.37 bitrate=1001.6kbits/s speed=0.0633x elapsed=0:02:12.39    \nframe=  202 fps=1.5 q=36.0 size=    1024KiB time=00:00:08.37 bitrate=1001.6kbits/s speed=0.063x elapsed=0:02:12.94    \nframe=  204 fps=1.5 q=44.0 size=    1024KiB time=00:00:08.37 bitrate=1001.6kbits/s speed=0.0627x elapsed=0:02:13.51    \nframe=  204 fps=1.5 q=44.0 size=    1024KiB time=00:00:08.45 bitrate= 991.8kbits/s speed=0.0631x elapsed=0:02:14.09    \nframe=  206 fps=1.5 q=41.0 size=    1024KiB time=00:00:08.54 bitrate= 982.1kbits/s speed=0.0634x elapsed=0:02:14.69    \nframe=  206 fps=1.5 q=41.0 size=    1024KiB time=00:00:08.54 bitrate= 982.1kbits/s speed=0.0632x elapsed=0:02:15.25    \nframe=  206 fps=1.5 q=41.0 size=    1024KiB time=00:00:08.54 bitrate= 982.1kbits/s speed=0.0629x elapsed=0:02:15.83    \nframe=  206 fps=1.5 q=41.0 size=    1024KiB time=00:00:08.54 bitrate= 982.1kbits/s speed=0.0626x elapsed=0:02:16.38    \nframe=  208 fps=1.5 q=38.0 size=    1024KiB time=00:00:08.62 bitrate= 972.6kbits/s speed=0.063x elapsed=0:02:16.93    \nframe=  210 fps=1.5 q=25.0 size=    1024KiB time=00:00:08.70 bitrate= 963.3kbits/s speed=0.0634x elapsed=0:02:17.44    \nframe=  210 fps=1.5 q=25.0 size=    1024KiB time=00:00:08.70 bitrate= 963.3kbits/s speed=0.0631x elapsed=0:02:17.95    \nframe=  214 fps=1.5 q=40.0 size=    1024KiB time=00:00:08.87 bitrate= 945.2kbits/s speed=0.0641x elapsed=0:02:18.47    \nframe=  214 fps=1.5 q=40.0 size=    1024KiB time=00:00:08.87 bitrate= 945.2kbits/s speed=0.0638x elapsed=0:02:18.99    \nframe=  214 fps=1.5 q=40.0 size=    1024KiB time=00:00:08.87 bitrate= 945.2kbits/s speed=0.0636x elapsed=0:02:19.55    \nframe=  216 fps=1.5 q=41.0 size=    1024KiB time=00:00:08.95 bitrate= 936.4kbits/s speed=0.0639x elapsed=0:02:20.15    \nframe=  218 fps=1.5 q=36.0 size=    1024KiB time=00:00:09.04 bitrate= 927.8kbits/s speed=0.0642x elapsed=0:02:20.74    \nframe=  218 fps=1.5 q=36.0 size=    1024KiB time=00:00:09.04 bitrate= 927.8kbits/s speed=0.064x elapsed=0:02:21.31    \nframe=  218 fps=1.5 q=36.0 size=    1024KiB time=00:00:09.04 bitrate= 927.8kbits/s speed=0.0637x elapsed=0:02:21.84    \nframe=  218 fps=1.5 q=36.0 size=    1024KiB time=00:00:09.04 bitrate= 927.8kbits/s speed=0.0635x elapsed=0:02:22.37    \nframe=  222 fps=1.6 q=44.0 size=    1024KiB time=00:00:09.20 bitrate= 911.0kbits/s speed=0.0644x elapsed=0:02:22.90    \nframe=  224 fps=1.6 q=44.0 size=    1024KiB time=00:00:09.29 bitrate= 902.8kbits/s speed=0.0648x elapsed=0:02:23.42    \nframe=  232 fps=1.6 q=44.0 size=    1024KiB time=00:00:09.62 bitrate= 871.5kbits/s speed=0.0669x elapsed=0:02:23.94    \n[out#0/matroska @ 000001bc8c6b8ec0] video:1815KiB audio:0KiB subtitle:0KiB other streams:0KiB global headers:0KiB muxing overhead: 0.094558%\nframe=  240 fps=1.7 q=39.0 Lsize=    1816KiB time=00:00:09.95 bitrate=1494.1kbits/s speed=0.0691x elapsed=0:02:24.02    \n",
  "seconds": 145.60548877716064,
  "probe_out": {}
}